<svg width="173" height="32" viewBox="0 0 173 32" fill="none" xmlns="http://www.w3.org/2000/svg">
<g id="Eclipse_logo_lockup_black 1" clip-path="url(#clip0_2820_29854)">
<path id="Vector" d="M151.766 18.0211L151.374 19.5917C150.914 21.4374 149.045 22.9331 147.199 22.9331H133.891L134.572 20.2022H145.803C146.264 20.2022 146.732 19.8285 146.847 19.367L147.126 18.2457C147.242 17.7843 146.961 17.4105 146.499 17.4105H138.609C136.764 17.4105 135.64 15.9142 136.101 14.0691L136.492 12.4985C136.952 10.6534 138.822 9.1571 140.667 9.1571H153.976L153.295 11.888H142.043C141.581 11.888 141.114 12.2617 140.999 12.7232L140.719 13.8445C140.604 14.3059 140.885 14.6797 141.347 14.6797H149.257C151.102 14.6797 152.225 16.176 151.766 18.0211Z" fill="black"/>
<path id="Vector_2" d="M123.372 9.15649H121.315C119.93 9.15649 118.529 10.2784 118.184 11.6627L115.374 22.9331H119.937L121.314 17.4099H130.06C131.905 17.4099 133.774 15.9136 134.234 14.0685L134.626 12.4979C135.086 10.6528 133.963 9.15649 132.117 9.15649H123.372ZM128.707 14.6797H121.995L122.691 11.888H129.404C129.865 11.888 130.146 12.2618 130.031 12.7232L129.751 13.8445C129.636 14.3059 129.169 14.6797 128.707 14.6797Z" fill="black"/>
<path id="Vector_3" d="M116.261 11.8874L116.942 9.15649H100.291L99.6103 11.8874H104.819C105.28 11.8874 105.561 12.2611 105.446 12.7226L103.789 19.3664C103.674 19.8279 103.206 20.2016 102.745 20.2016H97.5367L96.8557 22.9325H113.507L114.188 20.2016H108.979C108.518 20.2016 108.237 19.8279 108.352 19.3664L110.009 12.7226C110.124 12.2611 110.591 11.8874 111.053 11.8874H116.261Z" fill="black"/>
<path id="Vector_4" d="M83.801 19.3671L86.347 9.15649H81.7838L78.9735 20.4269C78.6286 21.8112 79.4708 22.9331 80.8551 22.9331H94.9998L95.6807 20.2023H84.4289C83.9674 20.2023 83.6865 19.8285 83.8017 19.3671H83.801Z" fill="black"/>
<path id="Vector_5" d="M79.2492 11.8874L79.9302 9.15649H66.6213C64.7756 9.15649 62.9061 10.6528 62.4466 12.4979L60.6783 19.5917C60.2181 21.4375 61.3413 22.9331 63.1871 22.9331H76.4959L77.1769 20.2023H67.5954C66.2111 20.2023 65.3689 19.0803 65.7145 17.696L66.5375 14.3936C66.8825 13.0093 68.2847 11.8874 69.6684 11.8874H79.2498H79.2492Z" fill="black"/>
<path id="Vector_6" d="M60.7597 11.8874L61.4406 9.15649H48.1318C46.2861 9.15649 44.4166 10.6528 43.9571 12.4979L42.1888 19.5917C41.7286 21.4375 42.8518 22.9331 44.6976 22.9331H58.0064L58.6874 20.2023H47.4355C46.9741 20.2023 46.6931 19.8285 46.8083 19.3671L47.296 17.4106H59.3837L60.0646 14.6797H47.977L48.4646 12.7232C48.5798 12.2618 49.047 11.888 49.5085 11.888H60.7603L60.7597 11.8874Z" fill="black"/>
<path id="Vector_7" d="M171.695 11.8874L172.376 9.15649H159.068C157.221 9.15649 155.352 10.6528 154.892 12.4979L153.124 19.5917C152.664 21.4375 153.787 22.9331 155.633 22.9331H168.941L169.622 20.2023H158.371C157.909 20.2023 157.628 19.8285 157.743 19.3671L158.231 17.4106H170.319L171 14.6797H158.912L159.4 12.7232C159.515 12.2618 159.983 11.888 160.444 11.888H171.696L171.695 11.8874Z" fill="black"/>
<path id="Vector_8" d="M8.85386 27.3389C5.81642 27.3389 3.96746 24.8762 4.72458 21.8381L7.63594 10.1619C8.39306 7.12448 11.4702 4.66112 14.5083 4.66112H30.3809C28.1543 1.78048 24.5774 0 20.1716 0C11.3345 0 2.51274 7.16288 0.467296 16C-1.57814 24.8371 3.92586 32 12.763 32C17.1687 32 21.57 30.2195 25.1303 27.3389H8.85386Z" fill="black"/>
<path id="Vector_9" d="M16.7732 9.15649C16.0135 9.15649 15.2442 9.77217 15.0554 10.5319L14.2522 13.7523H26.6138L25.4932 18.2477H13.1316L12.3284 21.4682C12.1389 22.2279 12.601 22.8435 13.3607 22.8435H29.3485C30.8122 20.7687 31.9002 18.4487 32.4672 16C33.0343 13.5514 33.0202 11.2314 32.5172 9.15649H16.7732Z" fill="black"/>
</g>
<defs>
<clipPath id="clip0_2820_29854">
<rect width="172.416" height="32" fill="white"/>
</clipPath>
</defs>
</svg>
